<?xml version="1.0" standalone="no"?>
<!DOCTYPE svg PUBLIC "-//W3C//DTD SVG 20010904//EN"
 "http://www.w3.org/TR/2001/REC-SVG-20010904/DTD/svg10.dtd">
<svg version="1.0" xmlns="http://www.w3.org/2000/svg"
 width="500.000000pt" height="500.000000pt" viewBox="0 0 500.000000 500.000000"
 preserveAspectRatio="xMidYMid meet">
<metadata>
Created by potrace 1.14, written by Peter Selinger 2001-2017
</metadata>
<g transform="translate(0.000000,500.000000) scale(0.100000,-0.100000)"
fill="#000000" stroke="none">
<path d="M2349 4796 c-2 -2 -33 -6 -69 -10 -107 -10 -217 -28 -305 -49 -11 -3
-38 -10 -60 -15 -52 -13 -190 -57 -235 -75 -19 -8 -51 -20 -70 -27 -73 -27
-279 -138 -375 -202 -137 -92 -222 -161 -343 -279 -376 -370 -596 -815 -673
-1364 -25 -177 -15 -512 22 -685 56 -270 112 -432 224 -648 117 -225 237 -387
419 -567 273 -270 588 -459 949 -569 89 -27 248 -63 321 -72 23 -3 52 -8 66
-11 61 -12 413 -15 511 -4 238 27 405 68 609 149 537 213 971 615 1223 1134
233 480 292 1044 162 1558 -43 172 -146 434 -215 550 -142 236 -223 343 -385
506 -223 225 -465 390 -730 498 -38 16 -83 35 -100 42 -81 36 -358 104 -490
120 -27 3 -59 8 -70 11 -25 5 -381 14 -386 9z m356 -120 c91 -7 161 -18 293
-49 l93 -21 50 -68 c45 -60 79 -85 129 -93 43 -7 60 -18 60 -38 0 -13 -6 -31
-13 -41 -18 -25 -46 -14 -77 29 -30 42 -96 68 -111 44 -24 -39 5 -77 89 -116
65 -30 92 -56 85 -82 -3 -13 4 -25 21 -37 54 -34 55 -85 2 -98 -32 -8 -38 -47
-14 -96 33 -67 104 -94 171 -67 30 13 38 23 47 59 18 72 31 97 54 104 59 19
92 6 158 -62 48 -49 75 -53 57 -7 -5 14 -8 27 -6 29 9 9 100 -60 115 -87 31
-56 37 -62 60 -55 17 6 21 13 18 32 -5 23 -3 24 32 18 74 -13 117 -49 151
-123 29 -66 17 -81 -64 -81 -47 0 -66 -4 -73 -15 -9 -16 -5 -18 -100 51 -13
10 -40 20 -60 23 -29 5 -40 13 -52 38 -36 77 -133 69 -310 -25 -89 -47 -107
-65 -93 -94 14 -31 3 -56 -48 -106 -40 -38 -44 -47 -45 -94 -1 -28 4 -72 12
-97 8 -25 20 -72 25 -103 10 -53 9 -64 -15 -123 -33 -84 -33 -107 3 -137 16
-14 34 -40 41 -60 7 -19 38 -67 69 -105 138 -173 190 -215 256 -207 85 11 196
50 215 76 15 20 59 14 103 -13 49 -30 81 -37 93 -18 11 18 26 -6 26 -43 0 -19
-7 -51 -16 -72 -28 -66 -21 -103 35 -196 50 -84 50 -86 45 -150 -6 -68 -42
-224 -71 -300 -15 -40 -16 -54 -5 -123 13 -81 8 -197 -11 -272 -6 -22 -26 -73
-45 -113 -40 -84 -46 -145 -21 -204 30 -71 86 -73 159 -4 31 30 98 117 98 129
0 7 102 175 149 244 22 34 58 96 78 138 20 41 37 74 39 72 1 -1 -5 -27 -15
-57 -183 -548 -585 -1008 -1106 -1266 -183 -91 -406 -164 -590 -193 -38 -6
-81 -14 -95 -17 -41 -11 -460 -13 -525 -3 -33 4 -80 11 -105 14 -166 22 -454
116 -633 206 -254 128 -526 344 -692 549 -20 25 -46 56 -57 69 -102 120 -249
387 -318 576 -18 50 -35 97 -38 105 -3 8 -6 20 -7 25 -2 6 -12 47 -24 93 -58
223 -78 476 -58 728 17 219 90 498 181 698 14 31 26 58 26 61 0 9 124 221 157
268 97 140 264 337 285 337 20 0 -30 -70 -82 -113 -80 -67 -122 -153 -136
-282 -9 -82 -10 -89 -29 -125 -36 -69 -45 -107 -30 -127 12 -16 15 -16 29 -3
8 8 23 37 34 65 19 47 44 76 57 63 10 -9 10 -98 1 -198 -5 -52 -10 -104 -11
-115 -2 -31 19 -78 61 -134 37 -49 62 -64 128 -75 40 -7 73 -31 100 -75 16
-24 35 -41 56 -47 21 -6 39 -21 49 -40 31 -58 96 -106 132 -98 13 3 42 8 64
11 36 4 42 2 54 -20 16 -31 10 -84 -17 -136 -10 -20 -38 -74 -62 -121 -41 -79
-44 -90 -44 -165 -1 -97 15 -131 93 -190 62 -47 78 -73 86 -141 17 -133 18
-134 175 -256 38 -30 64 -60 84 -100 25 -52 29 -70 33 -185 3 -78 12 -162 25
-213 11 -47 28 -125 38 -175 9 -49 25 -121 34 -160 9 -38 24 -101 33 -140 28
-120 80 -202 147 -230 26 -11 66 -10 66 2 0 2 -10 25 -22 51 -21 45 -26 86
-28 235 0 41 19 101 39 117 3 3 22 22 41 43 31 34 35 44 35 94 0 54 1 57 30
65 18 4 62 41 111 92 75 78 83 91 99 153 22 83 47 120 94 142 86 39 111 73
111 150 0 87 64 254 131 343 78 104 98 172 69 234 -30 66 -76 101 -152 117
-37 8 -86 24 -110 37 -25 13 -65 23 -98 25 -30 2 -69 9 -85 15 -28 12 -35 10
-73 -14 -78 -49 -102 -25 -70 69 34 102 11 207 -53 241 -17 8 -33 13 -36 11
-13 -14 -157 68 -204 115 -40 40 -111 59 -169 47 -39 -8 -58 -7 -96 6 -47 16
-98 13 -110 -6 -7 -12 -95 -56 -148 -76 -50 -18 -111 -26 -136 -18 -27 9 -42
55 -42 134 0 80 -7 93 -69 118 -22 8 -39 19 -39 24 0 5 11 36 25 69 53 126 21
145 -77 45 -36 -36 -72 -65 -80 -65 -49 0 -64 86 -32 184 33 102 60 135 159
199 107 69 156 75 205 25 31 -31 32 -34 26 -95 -7 -63 -3 -71 24 -53 11 7 15
30 17 82 0 40 2 76 2 80 1 4 14 20 31 35 16 15 45 60 64 98 45 91 151 198 214
215 56 15 82 41 82 84 0 19 6 38 12 42 18 11 48 12 54 2 3 -4 14 -8 24 -8 22
0 111 40 123 55 4 6 -6 22 -22 37 -16 14 -34 35 -40 46 -12 23 -1 30 64 38 22
3 46 7 53 9 7 3 24 -9 39 -25 51 -58 110 -25 73 41 -10 19 -23 44 -29 55 -12
28 -59 64 -81 64 -12 0 -17 8 -16 32 1 26 -4 33 -26 39 -15 4 -36 16 -48 27
-44 41 -92 32 -109 -20 -8 -25 -24 -41 -58 -60 -50 -26 -54 -31 -77 -90 -12
-30 -20 -38 -40 -38 -25 0 -26 3 -26 56 0 50 -2 56 -19 51 -22 -5 -51 9 -51
27 0 29 52 65 108 76 85 17 88 18 133 56 57 47 77 50 138 19 52 -26 53 -26 89
-8 20 10 37 25 38 33 0 21 -17 60 -28 60 -4 0 -8 6 -8 14 0 14 32 23 111 33
44 5 46 4 59 -26 7 -18 26 -48 41 -68 17 -20 29 -48 29 -64 0 -41 27 -38 87
10 61 49 160 151 148 151 -6 0 -4 4 4 9 8 5 24 8 35 6 12 -2 57 -6 101 -9z"/>
</g>
</svg>
